PathFileType	3	(X/Y/Z)	D:\VICON_DB\Goncalves\Pilot01\09-03-2026\walking_02.trc
DataRate	CameraRate	NumFrames	NumMarkers	Units	OrigDataRate	OrigDataStartFrame	OrigNumFrames
200.0	200.0	8	34	mm	200.0	488	1300	
Frame#	Time	LASI			RASI			LPSI			RPSI			LTHI			LTHAP			LTHAD			LKNE			LKNM			LTIB			LTIAP			LTIAD			LANK			LMED			LHEE			LTOE			LFMH			LSMH			LVMH			RTHI			RTHAP			RTHAD			RKNE			RKNM			RTIB			RTIAP			RTIAD			RANK			RMED			RHEE			RTOE			RFMH			RSMH			RVMH			
		X1	Y1	Z1	X2	Y2	Z2	X3	Y3	Z3	X4	Y4	Z4	X5	Y5	Z5	X6	Y6	Z6	X7	Y7	Z7	X8	Y8	Z8	X9	Y9	Z9	X10	Y10	Z10	X11	Y11	Z11	X12	Y12	Z12	X13	Y13	Z13	X14	Y14	Z14	X15	Y15	Z15	X16	Y16	Z16	X17	Y17	Z17	X18	Y18	Z18	X19	Y19	Z19	X20	Y20	Z20	X21	Y21	Z21	X22	Y22	Z22	X23	Y23	Z23	X24	Y24	Z24	X25	Y25	Z25	X26	Y26	Z26	X27	Y27	Z27	X28	Y28	Z28	X29	Y29	Z29	X30	Y30	Z30	X31	Y31	Z31	X32	Y32	Z32	X33	Y33	Z33	X34	Y34	Z34	
488	2.435	420.75223	849.93408	-1120.6947	158.86694	857.28827	-1096.4396				239.44672	901.354	-1302.8678	430.61969	639.89313	-1166.8832	448.11566	714.10742	-1171.2457	438.92084	584.11902	-1223.9268	410.5907	441.06641	-1301.6675				408.65341	272.90732	-1418.2109	358.17337	321.9671	-1331.8761	374.30521	233.15625	-1394.9259	363.07327	99.861755	-1533.4562				314.07785	116.56181	-1579.6996	331.58878	80.765244	-1461.4169	296.34348	45.68338	-1417.9659				376.81775	25.441599	-1432.921	127.37128	615.91498	-1033.8473	143.78244	738.57343	-1060.2279	181.24652	669.02362	-1015.8408	154.78006	477.28299	-1017.1273				153.75699	292.45688	-959.46863	205.77959	356.83386	-946.09552	210.68071	279.76544	-921.36682	198.19975	62.175995	-913.26208				239.86891	48.794575	-950.23895	220.60866	99.607384	-832.37878	252.19992	98.300064	-782.62433				182.91606	67.010704	-782.82642
489	2.44	420.09631	849.45764	-1113.3801	158.19357	857.38098	-1089.3297				238.8288	900.97052	-1295.67	430.23172	639.24487	-1159.8086	447.52811	713.47406	-1164.1006	438.7019	583.50403	-1216.8575	410.68912	440.39587	-1294.6279				409.00507	273.8656	-1413.5098	358.57968	321.38498	-1326.2935	374.89734	233.67538	-1390.7489	363.89325	102.45425	-1531.4302				314.93442	120.22142	-1577.3295	332.35336	81.68399	-1459.8191	296.57449	45.751961	-1417.5796				376.76181	25.261574	-1432.9547	126.70824	615.77771	-1026.6326	142.93816	738.68787	-1052.7886	180.30016	669.10693	-1008.2855	154.89915	477.24161	-1010.3851				154.02882	291.48764	-954.59875	205.76251	355.89752	-940.15247	210.78993	278.51147	-916.3349	198.60262	61.030994	-911.33209				240.19159	48.488167	-948.44989	220.85997	96.823456	-829.78198	252.35989	94.585327	-779.95435				183.02377	63.234886	-781.03577
490	2.445	419.41165	849.03516	-1105.9941	157.50177	857.55548	-1082.1937				238.18796	900.67059	-1288.3932	429.8241	638.64087	-1152.547	446.9093	712.88184	-1156.8096	438.48993	582.90179	-1209.5671	410.81934	439.6972	-1287.2898				409.38589	274.89325	-1408.5488	359.0481	320.79999	-1320.4335	375.54288	234.25607	-1386.3217	364.74387	105.20464	-1529.1793				315.79892	124.07619	-1574.6611	333.15421	82.630096	-1458.0537	296.81412	45.823544	-1417.151				376.69046	25.089828	-1432.9769	125.97276	615.62653	-1019.513	142.00531	738.81683	-1045.3306	179.22777	669.17365	-1000.7122	154.94298	477.21933	-1003.7551				154.26311	290.60794	-949.78717	205.70239	355.04425	-934.28082	210.8707	277.35547	-911.36487	198.97148	60.022678	-909.46948				240.47052	48.360088	-946.75085	221.10889	94.092102	-827.25323	252.53961	90.884964	-777.37329				183.14348	59.475929	-779.35016
491	2.45	418.69855	848.66614	-1098.5477	156.79379	857.81323	-1075.0417				237.53438	900.46185	-1281.0457	429.39706	638.0835	-1145.0992	446.26038	712.33215	-1149.3789	438.28607	582.31128	-1202.0531	410.98306	438.96591	-1279.6411				409.79321	275.9863	-1403.3071	359.57889	320.20956	-1314.2793	376.23859	234.89554	-1381.6249	365.61978	108.11462	-1526.6801				316.66364	128.12492	-1571.6632	333.98404	83.600838	-1456.1078	297.05948	45.899052	-1416.6743				376.60306	24.934958	-1432.9807	125.16514	615.47229	-1012.4921	140.99011	738.96625	-1037.8629	178.03735	669.22821	-993.13318	154.90131	477.22638	-997.22784				154.4469	289.83585	-945.01202	205.59813	354.28473	-928.47437	210.91808	276.30829	-906.45203	199.2881	59.153439	-907.65564				240.69203	48.40337	-945.12244	221.33678	91.437386	-824.78485	252.71812	87.234131	-774.87457				183.25389	55.770386	-777.7533
492	2.455	417.95682	848.35004	-1091.0521	156.07187	858.15521	-1067.884				236.88026	900.35126	-1273.6393	428.95145	637.5752	-1137.4681	445.58319	711.82648	-1141.8148	438.09171	581.73193	-1194.3142	411.18173	438.19815	-1271.6713				410.2244	277.13968	-1397.7634	360.1713	319.61154	-1307.8145	376.98047	235.59081	-1376.6381	366.51422	111.18484	-1523.9062				317.52002	132.36447	-1568.3041	334.83447	84.593521	-1453.9686	297.30734	45.980728	-1416.1422				376.49988	24.807413	-1432.9569	124.28701	615.32916	-1005.5703	139.90048	739.14429	-1030.3977	176.73943	669.27832	-985.56189	154.76678	477.27368	-990.79156				154.56799	289.18402	-940.25525	205.44998	353.62375	-922.7298	210.92816	275.37387	-901.59784	199.53925	58.417774	-905.88525				240.84621	48.60165	-943.5553	221.52655	88.879463	-822.38196	252.87468	83.665253	-772.46301				183.33324	52.151596	-776.23883
493	2.46	417.18658	848.08685	-1083.5198	155.33839	858.58258	-1060.7307				236.23814	900.34613	-1266.1882	428.48849	637.11859	-1129.6571	444.88092	711.36676	-1134.1259	437.90863	581.16364	-1186.3517	411.41647	437.39099	-1263.3712				410.67706	278.34766	-1391.8979	360.82391	319.00433	-1301.0238	377.76419	236.33847	-1371.3413	367.41928	114.41405	-1520.8306				318.35904	136.78932	-1564.5515	335.69608	85.606461	-1451.6249	297.55435	46.07259	-1415.5461				376.3819	24.719627	-1432.895	123.34248	615.21277	-998.74579	138.74619	739.3609	-1022.9486	175.34705	669.33514	-978.01324	154.53568	477.37186	-984.43231				154.61653	288.65802	-935.50549	205.25911	353.05954	-917.04767	210.89825	274.54916	-896.80914	199.7195	57.804829	-904.16479				240.92876	48.932144	-942.04877	221.66479	86.434952	-820.05914	252.99141	80.206604	-770.15216				183.36137	48.648762	-774.80774
494	2.465	416.38797	847.87604	-1075.9631	154.59583	859.09558	-1053.5906				235.62001	900.45337	-1258.7073	428.01062	636.71582	-1121.672	444.15799	710.95471	-1126.3207	437.73892	580.60693	-1178.1675	411.68793	436.54282	-1254.7349				411.14905	279.60385	-1385.6927	361.53473	318.38687	-1293.8939	378.58493	237.13509	-1365.7168	368.32678	117.79792	-1517.4258				319.17133	141.39154	-1560.3746	336.55905	86.639801	-1449.064	297.79697	46.180943	-1414.8756				376.25125	24.68601	-1432.7823	122.33858	615.13922	-992.01392	137.53883	739.62689	-1015.5311	173.87622	669.41132	-970.50208	154.20869	477.52966	-978.13641				154.58719	288.25482	-930.75977	205.02721	352.58472	-911.43182	210.82664	273.82507	-892.09625	199.83096	57.301292	-902.50873				240.94156	49.368774	-940.60797	221.74333	84.117165	-817.83527	253.05551	76.88195	-767.95813				183.32137	45.287029	-773.46448
495	2.47	415.56177	847.71741	-1068.394	153.84662	859.69312	-1046.4724				235.03769	900.67841	-1251.2111	427.52121	636.36908	-1113.5197	443.41943	710.59167	-1118.4103	437.58487	580.06238	-1169.7666	411.99588	435.6535	-1245.7599				411.6384	280.90189	-1379.1327	362.30093	317.75903	-1286.4138	379.43762	237.97722	-1359.7484	369.22897	121.32889	-1513.6654				319.94803	146.16045	-1555.7448	337.41391	87.695938	-1446.2749	298.03214	46.314796	-1414.1176				376.11093	24.722887	-1432.6036	121.28567	615.12354	-985.36786	136.29141	739.95203	-1008.1612	172.34596	669.52051	-963.04388	153.79073	477.75272	-971.89111				154.47983	287.96371	-926.02429	204.7561	352.18756	-905.88934	210.71265	273.18832	-887.47137	199.88078	56.893585	-900.93396				240.89125	49.884674	-939.23999	221.75948	81.936684	-815.72894	253.05927	73.711365	-765.89587				183.2009	42.088348	-772.21381
